<svg width="168" height="27" viewBox="0 0 168 27" fill="none" xmlns="http://www.w3.org/2000/svg">
<path d="M35.7501 9.296L35.2701 9.416C35.1581 9.128 35.0141 8.928 34.8381 8.816C34.6781 8.688 34.4061 8.624 34.0221 8.624H32.4861V21.608C32.4861 21.88 32.5581 22.104 32.7021 22.28C32.8461 22.456 33.0381 22.544 33.2781 22.544V23H28.7421V22.544C28.9661 22.544 29.1581 22.464 29.3181 22.304C29.4781 22.128 29.5581 21.896 29.5581 21.608V8.624H27.9501C27.5981 8.624 27.3341 8.688 27.1581 8.816C26.9821 8.928 26.8541 9.128 26.7741 9.416L26.2701 9.296L26.8461 6.056C27.1021 6.168 27.4621 6.224 27.9261 6.224H34.2141C34.6301 6.224 34.9341 6.16 35.1261 6.032L35.7501 9.296ZM43.2432 15.968C43.2432 18.544 42.9232 20.432 42.2832 21.632C41.6432 22.816 40.6432 23.408 39.2832 23.408C37.9392 23.408 36.9472 22.808 36.3072 21.608C35.6672 20.392 35.3472 18.52 35.3472 15.992C35.3472 11.432 36.6672 9.152 39.3072 9.152C41.9312 9.152 43.2432 11.424 43.2432 15.968ZM40.5552 15.992C40.5552 14.296 40.4512 13.08 40.2432 12.344C40.0352 11.592 39.7152 11.216 39.2832 11.216C38.4512 11.216 38.0352 12.808 38.0352 15.992C38.0352 17.96 38.1392 19.344 38.3472 20.144C38.5552 20.944 38.8752 21.344 39.3072 21.344C39.5792 21.344 39.8032 21.192 39.9792 20.888C40.1552 20.584 40.2912 20.032 40.3872 19.232C40.4992 18.416 40.5552 17.336 40.5552 15.992ZM55.6613 10.016C55.2773 10.016 55.0613 10.232 55.0133 10.664L53.3813 23H51.0053L49.8053 18.224H49.6613L48.4853 23H46.0853L44.3813 10.664C44.3333 10.232 44.1173 10.016 43.7333 10.016V9.584H47.4773V10.016C47.0933 10.016 46.9013 10.16 46.9013 10.448C46.9013 10.528 46.9173 10.744 46.9493 11.096L47.6693 18.728H47.8133L49.3253 13.448H50.2133L51.7013 18.728H51.8453L52.5653 10.976C52.5813 10.8 52.5893 10.632 52.5893 10.472C52.5893 10.168 52.3973 10.016 52.0133 10.016V9.584H55.6613V10.016ZM63.3781 20.336L62.8741 23.144C62.6821 23.048 62.3781 23 61.9621 23H56.3221V22.568C56.5301 22.568 56.6981 22.504 56.8261 22.376C56.9541 22.232 57.0181 22.048 57.0181 21.824V10.712C57.0181 10.504 56.9541 10.336 56.8261 10.208C56.6981 10.08 56.5301 10.016 56.3221 10.016V9.584H61.7941C62.1941 9.584 62.5061 9.536 62.7301 9.44L63.2581 12.152L62.8261 12.296C62.6821 11.832 62.4181 11.6 62.0341 11.6H59.6101V14.6H61.6021C61.8261 14.6 62.0101 14.544 62.1541 14.432C62.3141 14.32 62.3941 14.168 62.3941 13.976H62.8261V17.312H62.3941C62.3941 16.864 62.1301 16.64 61.6021 16.64H59.6341V20.96H62.0101C62.3941 20.96 62.7061 20.704 62.9461 20.192L63.3781 20.336ZM72.6228 23H69.3588C68.7988 21.096 68.4388 19.32 68.2788 17.672H67.4388V21.824C67.4388 22.32 67.6708 22.568 68.1348 22.568V23H64.1268V22.568C64.3348 22.568 64.5028 22.504 64.6308 22.376C64.7588 22.232 64.8228 22.048 64.8228 21.824V10.712C64.8228 10.248 64.5908 10.016 64.1268 10.016V9.584C65.2468 9.488 66.4708 9.44 67.7988 9.44C70.6948 9.44 72.1428 10.784 72.1428 13.472C72.1428 15.104 71.6148 16.256 70.5588 16.928C70.8148 18.512 71.2388 20.192 71.8308 21.968C71.9588 22.368 72.2228 22.568 72.6228 22.568V23ZM69.4548 13.616C69.4548 12.864 69.2948 12.32 68.9748 11.984C68.6708 11.648 68.2948 11.48 67.8468 11.48C67.7028 11.48 67.5668 11.488 67.4388 11.504V15.8C67.5188 15.816 67.6548 15.824 67.8468 15.824C68.3108 15.824 68.6948 15.648 68.9988 15.296C69.3028 14.944 69.4548 14.384 69.4548 13.616ZM84.4932 15.968C84.4932 18.544 84.1732 20.432 83.5332 21.632C82.8932 22.816 81.8932 23.408 80.5332 23.408C79.1892 23.408 78.1972 22.808 77.5572 21.608C76.9172 20.392 76.5972 18.52 76.5972 15.992C76.5972 11.432 77.9172 9.152 80.5572 9.152C83.1812 9.152 84.4932 11.424 84.4932 15.968ZM81.8052 15.992C81.8052 14.296 81.7012 13.08 81.4932 12.344C81.2852 11.592 80.9652 11.216 80.5332 11.216C79.7012 11.216 79.2852 12.808 79.2852 15.992C79.2852 17.96 79.3892 19.344 79.5972 20.144C79.8052 20.944 80.1252 21.344 80.5572 21.344C80.8292 21.344 81.0532 21.192 81.2292 20.888C81.4052 20.584 81.5412 20.032 81.6372 19.232C81.7492 18.416 81.8052 17.336 81.8052 15.992ZM92.3206 12.152L91.8886 12.296C91.8086 12.024 91.7046 11.84 91.5766 11.744C91.4486 11.648 91.2246 11.6 90.9046 11.6H88.6726V14.84H90.6406C90.8806 14.84 91.0726 14.776 91.2166 14.648C91.3606 14.52 91.4326 14.36 91.4326 14.168H91.8646V17.48H91.4326C91.4326 17.064 91.1686 16.856 90.6406 16.856H88.6966V21.824C88.6966 22.048 88.7686 22.232 88.9126 22.376C89.0566 22.504 89.2406 22.568 89.4646 22.568V23H85.3846V22.568C85.6086 22.568 85.7766 22.496 85.8886 22.352C86.0166 22.208 86.0806 22.032 86.0806 21.824V10.712C86.0806 10.248 85.8486 10.016 85.3846 10.016V9.584H90.7126C91.2086 9.584 91.5686 9.536 91.7926 9.44L92.3206 12.152ZM110.249 6.68C109.817 6.68 109.569 6.952 109.505 7.496L107.489 23H104.945L103.265 17.264H103.145L101.465 23H99.0408L96.9288 7.496C96.8488 6.952 96.5928 6.68 96.1608 6.68V6.224H100.553V6.68C100.105 6.68 99.8808 6.856 99.8808 7.208C99.8808 7.336 99.8968 7.576 99.9288 7.928L100.841 17.504H100.937L102.617 11.696H103.961L105.665 17.504H105.737L106.601 7.832C106.617 7.656 106.625 7.464 106.625 7.256C106.625 6.872 106.393 6.68 105.929 6.68V6.224H110.249V6.68ZM114.87 23H110.838V22.568C111.046 22.568 111.214 22.504 111.342 22.376C111.47 22.232 111.534 22.048 111.534 21.824V10.712C111.534 10.248 111.302 10.016 110.838 10.016V9.584H114.87V10.016C114.39 10.016 114.15 10.248 114.15 10.712V21.824C114.15 22.32 114.39 22.568 114.87 22.568V23ZM122.721 20.384L122.193 23.144C122.001 23.048 121.697 23 121.281 23H115.761L115.473 22.376L119.433 11.6H116.913C116.513 11.6 116.209 11.824 116.001 12.272L115.545 12.104L116.097 9.416C116.321 9.528 116.633 9.584 117.033 9.584H122.193L122.553 10.256C122.505 10.448 122.209 11.304 121.665 12.824C121.121 14.328 120.521 16 119.865 17.84C119.209 19.664 118.833 20.704 118.737 20.96H121.233C121.713 20.96 122.057 20.72 122.265 20.24L122.721 20.384ZM131.85 23H128.082V22.568C128.402 22.568 128.562 22.432 128.562 22.16C128.562 21.776 128.522 21.36 128.442 20.912C128.09 21.04 127.722 21.104 127.338 21.104C126.954 21.104 126.586 21.04 126.234 20.912C126.138 21.456 126.09 21.872 126.09 22.16C126.09 22.432 126.25 22.568 126.57 22.568V23H123.066V22.568C123.402 22.568 123.594 22.392 123.642 22.04L125.514 10.76C125.546 10.504 125.562 10.368 125.562 10.352C125.562 10.128 125.442 10.016 125.202 10.016V9.584H129.714V10.016C129.49 10.016 129.378 10.12 129.378 10.328C129.378 10.408 129.394 10.56 129.426 10.784L131.25 22.016C131.314 22.384 131.514 22.568 131.85 22.568V23ZM128.178 18.776L127.314 12.224H127.29L126.522 18.776C126.73 18.904 127.01 18.968 127.362 18.968C127.65 18.968 127.922 18.904 128.178 18.776ZM140.896 23H137.632C137.072 21.096 136.712 19.32 136.552 17.672H135.712V21.824C135.712 22.32 135.944 22.568 136.408 22.568V23H132.4V22.568C132.608 22.568 132.776 22.504 132.904 22.376C133.032 22.232 133.096 22.048 133.096 21.824V10.712C133.096 10.248 132.864 10.016 132.4 10.016V9.584C133.52 9.488 134.744 9.44 136.072 9.44C138.968 9.44 140.416 10.784 140.416 13.472C140.416 15.104 139.888 16.256 138.832 16.928C139.088 18.512 139.512 20.192 140.104 21.968C140.232 22.368 140.496 22.568 140.896 22.568V23ZM137.728 13.616C137.728 12.864 137.568 12.32 137.248 11.984C136.944 11.648 136.568 11.48 136.12 11.48C135.976 11.48 135.84 11.488 135.712 11.504V15.8C135.792 15.816 135.928 15.824 136.12 15.824C136.584 15.824 136.968 15.648 137.272 15.296C137.576 14.944 137.728 14.384 137.728 13.616ZM149.703 15.92C149.703 18.4 149.311 20.224 148.527 21.392C147.759 22.56 146.527 23.144 144.831 23.144C143.343 23.144 142.215 23.096 141.447 23V22.568C141.911 22.568 142.143 22.376 142.143 21.992V10.64C142.143 10.224 141.911 10.016 141.447 10.016V9.56C142.487 9.48 143.607 9.44 144.807 9.44C146.455 9.44 147.679 9.936 148.479 10.928C149.295 11.92 149.703 13.584 149.703 15.92ZM146.991 15.968C146.991 13.024 146.423 11.552 145.287 11.552C145.207 11.552 145.111 11.56 144.999 11.576C144.887 11.576 144.807 11.576 144.759 11.576V21.104C144.791 21.104 144.847 21.112 144.927 21.128C145.023 21.128 145.095 21.128 145.143 21.128C145.783 21.128 146.247 20.736 146.535 19.952C146.839 19.152 146.991 17.824 146.991 15.968ZM159.084 23H155.82C155.26 21.096 154.9 19.32 154.74 17.672H153.9V21.824C153.9 22.32 154.132 22.568 154.596 22.568V23H150.588V22.568C150.796 22.568 150.964 22.504 151.092 22.376C151.22 22.232 151.284 22.048 151.284 21.824V10.712C151.284 10.248 151.052 10.016 150.588 10.016V9.584C151.708 9.488 152.932 9.44 154.26 9.44C157.156 9.44 158.604 10.784 158.604 13.472C158.604 15.104 158.076 16.256 157.02 16.928C157.276 18.512 157.7 20.192 158.292 21.968C158.42 22.368 158.684 22.568 159.084 22.568V23ZM155.916 13.616C155.916 12.864 155.756 12.32 155.436 11.984C155.132 11.648 154.756 11.48 154.308 11.48C154.164 11.48 154.028 11.488 153.9 11.504V15.8C153.98 15.816 154.116 15.824 154.308 15.824C154.772 15.824 155.156 15.648 155.46 15.296C155.764 14.944 155.916 14.384 155.916 13.616ZM167.777 10.016C167.473 10.016 167.265 10.192 167.153 10.544L164.729 18.104V21.824C164.729 22.032 164.793 22.208 164.921 22.352C165.065 22.496 165.241 22.568 165.449 22.568V23H161.393V22.568C161.873 22.568 162.113 22.32 162.113 21.824V18.104L159.785 10.592C159.673 10.208 159.441 10.016 159.089 10.016V9.584H163.025V10.016C162.689 10.016 162.521 10.128 162.521 10.352C162.521 10.464 162.545 10.64 162.593 10.88L163.577 15.392H163.625L164.657 10.832C164.689 10.64 164.705 10.504 164.705 10.424C164.705 10.152 164.521 10.016 164.153 10.016V9.584H167.777V10.016Z" fill="url(#paint0_linear_12_2)"/>
<path d="M0.383221 0V5.71515H11.6569V6.75695H7.57551V8.81759H6.53393V6.75684H0.837846L3.25562 9.75472H13.3136V10.7964H6.50946V12.8572H5.46794V10.7964H3.27134V19.9136H6.53388V17.4191H5.20317V16.3776H9.33666V14.5013H7.22379V13.4597H12.6428V14.5014H10.3783V16.3774H14.4631V17.419H12.655V19.9134H14.1217V20.9551H10.5715L10.4218 25.0816L9.38014 25.0433L9.52818 20.9551H1.61131V20.9361H1.59905L0 26.1113H4.4506L4.99743 22.1711L6.02864 22.3139L5.50088 26.1113H21.6903L20.0912 20.9361H18.4173V9.77556L21.3054 6.19419V5.57106e-05H17.7153V2.92301H15.5291V0H11.899V2.92296H9.75132V0H6.12111V2.92296H3.97507V0H0.383221ZM7.57551 17.4191V19.9136H11.6134V17.4191H7.57551V17.4191Z" fill="url(#paint1_linear_12_2)"/>
<defs>
<linearGradient id="paint0_linear_12_2" x1="83.8988" y1="-34.8508" x2="101.782" y2="36.642" gradientUnits="userSpaceOnUse">
<stop stop-color="#5DC15B" stop-opacity="0"/>
<stop offset="1" stop-color="#B32222"/>
</linearGradient>
<linearGradient id="paint1_linear_12_2" x1="8.84396" y1="-35" x2="42.7115" y2="-14.4065" gradientUnits="userSpaceOnUse">
<stop stop-color="#5DC15B" stop-opacity="0"/>
<stop offset="1" stop-color="#B32222"/>
</linearGradient>
</defs>
</svg>
